<svg width="356" height="94" viewBox="0 0 356 94" fill="none" xmlns="http://www.w3.org/2000/svg">
<path d="M126.9 86C124.967 86 122.667 85.9 120 85.7C117.4 85.5667 114.533 85.2667 111.4 84.8V12.2C114.6 11.7333 117.5 11.4333 120.1 11.3C122.7 11.1 124.967 11 126.9 11C135.233 11 141.433 12.4667 145.5 15.4C149.567 18.3333 151.6 22.8 151.6 28.8C151.6 33.0667 150.6 36.6667 148.6 39.6C146.667 42.5333 143.9 44.5 140.3 45.5V45.9C144.633 46.7667 147.933 48.8 150.2 52C152.467 55.2 153.6 59.4333 153.6 64.7C153.6 71.9667 151.4 77.3333 147 80.8C142.667 84.2667 135.967 86 126.9 86ZM121.6 73.7C122.533 74.1667 123.5 74.5333 124.5 74.8C125.567 75 126.867 75.1 128.4 75.1C132.667 75.1 135.8 74.1333 137.8 72.2C139.8 70.2667 140.8 67.3 140.8 63.3C140.8 59.2333 139.767 56.2667 137.7 54.4C135.633 52.5333 132.367 51.6 127.9 51.6H117.6V41.2H126.6C130.867 41.2 133.967 40.4333 135.9 38.9C137.9 37.3667 138.9 34.9 138.9 31.5C138.9 28.2333 138.033 25.8333 136.3 24.3C134.633 22.7 132 21.9 128.4 21.9C127.133 21.9 125.933 22 124.8 22.2C123.667 22.4 122.6 22.7667 121.6 23.3L123.8 19.4V77.6L121.6 73.7ZM162.9 85V12H175.7V73.9H201.4V85H162.9ZM231 86C225.6 86 221.267 84.9 218 82.7C214.8 80.4333 212.467 76.7667 211 71.7C209.6 66.6333 208.9 59.9 208.9 51.5V45.5C208.9 37.0333 209.6 30.3 211 25.3C212.467 20.2333 214.8 16.6 218 14.4C221.267 12.1333 225.6 11 231 11C236.4 11 240.7 12.1333 243.9 14.4C247.167 16.6 249.5 20.2333 250.9 25.3C252.367 30.3 253.1 37.0333 253.1 45.5V51.5C253.1 59.9 252.367 66.6333 250.9 71.7C249.5 76.7667 247.167 80.4333 243.9 82.7C240.7 84.9 236.4 86 231 86ZM231 74.9C233.533 74.9 235.433 74.2667 236.7 73C238.033 71.6667 238.967 69.2667 239.5 65.8C240.033 62.2667 240.3 57.2 240.3 50.6V46.4C240.3 39.8 240.033 34.7667 239.5 31.3C238.967 27.7667 238.033 25.3667 236.7 24.1C235.433 22.7667 233.533 22.1 231 22.1C228.533 22.1 226.633 22.7667 225.3 24.1C223.967 25.3667 223.033 27.7667 222.5 31.3C221.967 34.7667 221.7 39.8 221.7 46.4V50.6C221.7 57.2 221.967 62.2667 222.5 65.8C223.033 69.2667 223.967 71.6667 225.3 73C226.633 74.2667 228.533 74.9 231 74.9ZM286.3 86C277.433 86 270.8 83.1333 266.4 77.4C262.067 71.6 259.9 62.9667 259.9 51.5V45.5C259.9 34.0333 262.067 25.4333 266.4 19.7C270.8 13.9 277.367 11 286.1 11C288.367 11 290.667 11.2 293 11.6C295.4 12 297.533 12.5667 299.4 13.3V38.7H286.9V15.6L293.1 25.2C290.767 23.2 288.3 22.2 285.7 22.2C281.433 22.2 278.2 24.2333 276 28.3C273.8 32.3667 272.7 38.4 272.7 46.4V50.6C272.7 59.2 273.867 65.4 276.2 69.2C278.6 72.9333 282.433 74.8 287.7 74.8C289.367 74.8 291.233 74.6333 293.3 74.3C295.367 73.9667 297.4 73.5333 299.4 73V84.6C297.467 85 295.3 85.3333 292.9 85.6C290.5 85.8667 288.3 86 286.3 86ZM308.9 85L322.1 48.2L308.9 12H322.1L330.8 40H331.2L339.9 12H353.1L339.9 48.2L353.1 85H339.8L331.2 56.3H330.8L322.2 85H308.9Z" fill="white"/>
<path fill-rule="evenodd" clip-rule="evenodd" d="M26.6724 8.53306C19.7392 12.6763 11.0612 17.8627 7.38787 20.0584L0.709319 24.0505L1.19684 24.3408C1.81833 24.7109 4.73602 26.3629 19.4371 34.6684C26.0011 38.3768 31.6682 41.582 32.0308 41.7911L32.6899 42.1712L32.3495 41.6201C32.1621 41.3172 32.0334 41.048 32.0632 41.0222C32.1132 40.9791 57.2204 25.2775 59.5456 23.8355C60.1081 23.4866 60.5974 23.1719 60.6331 23.1363C60.6687 23.1008 59.3021 22.3334 57.5964 21.4313C55.8905 20.5292 51.1237 18.0035 47.0034 15.8188C42.8833 13.634 39.2159 11.7024 38.8538 11.5265L38.1953 11.2065L27.9583 17.3694C22.3281 20.7591 17.7215 23.5719 17.7215 23.6204C17.7215 23.7223 31.1034 31.7373 31.3918 31.8082C31.4972 31.834 34.7415 29.9118 38.6011 27.5367L45.6186 23.218L42.5234 21.3855C40.8211 20.3776 39.3609 19.5537 39.2787 19.5546C39.1963 19.5555 37.2517 20.691 34.9573 22.0783C32.6628 23.4654 30.7398 24.6203 30.6839 24.645C30.5844 24.6885 29.1503 22.4326 29.2383 22.371C29.9137 21.8981 39.1531 16.4203 39.2754 16.4203C39.464 16.4203 47.6107 21.2262 49.5377 22.4741C50.5672 23.1409 50.6675 23.2453 50.4328 23.4057C49.4809 24.0563 31.7863 34.8754 31.5906 34.9265C31.4535 34.9623 27.671 32.7938 22.9306 29.9618C12.954 24.0014 12.5026 23.7273 12.5032 23.6307C12.5036 23.5279 12.6899 23.4145 26.1986 15.2886L38.1816 8.08045L38.879 8.45564C39.2627 8.6621 42.2618 10.2548 45.5438 11.9951C48.8258 13.7355 52.1153 15.4801 52.8537 15.8723C53.5922 16.2645 55.8746 17.4738 57.9259 18.5594C59.9771 19.6451 62.6485 21.0689 63.8623 21.7235L66.0691 22.9137L65.3541 23.368C64.9608 23.6178 57.8252 28.083 49.4971 33.2906C41.1691 38.4981 34.3005 42.8096 34.2335 42.8715C34.1189 42.9776 40.3846 46.6046 40.6825 46.6046C40.7588 46.6046 45.6096 43.6445 51.4622 40.0266C75.4441 25.2012 80.2258 22.2361 80.1906 22.2112C80.1705 22.1967 77.3008 20.7054 73.8137 18.8968C70.3266 17.0883 61.331 12.4213 53.8234 8.52575C46.3159 4.63003 39.9719 1.34312 39.7258 1.22139L39.2782 1L26.6724 8.53306ZM80.1539 25.0762C79.2514 25.6178 76.1633 27.4508 73.2916 29.1498C70.4198 30.8487 64.7472 34.2067 60.6857 36.6121C56.6243 39.0175 52.4324 41.4945 51.3704 42.1168C49.486 43.2209 49.4527 43.2491 49.9899 43.2943L50.5402 43.3405L50.5781 60.4085L50.616 77.4763L55.9119 74.3681C58.8247 72.6585 63.7589 69.7552 66.8768 67.9159L72.5457 64.5721L72.5837 51.4858C72.6047 44.2884 72.5712 38.4014 72.5091 38.4036C72.4472 38.4059 69.3756 40.2052 65.6833 42.4023L58.9702 46.3969L58.9317 54.9241L58.8932 63.4515L60.7964 62.3225C61.8432 61.7016 63.1193 60.9512 63.6321 60.6551L64.5645 60.1165V54.927V49.7374H65.9087H67.2532L67.2141 55.7166L67.1751 61.6956L61.7549 64.8912C58.7738 66.6488 56.3068 68.0867 56.2725 68.0867C56.2384 68.0867 56.2112 62.8673 56.2121 56.4879L56.214 44.889L64.8886 39.7423C73.8949 34.3987 74.9706 33.775 75.1802 33.775C75.2491 33.775 75.3055 41.057 75.3055 49.9573V66.1397L74.8426 66.379C74.5881 66.5108 71.0468 68.5827 66.9733 70.9835C51.1972 80.2815 48.0662 82.1098 47.9182 82.1098C47.884 82.1098 47.8562 73.6176 47.8562 63.2383C47.8562 52.0761 47.801 44.3669 47.7211 44.3669C47.6468 44.3669 46.3546 45.0898 44.8494 45.9733L42.1127 47.5796L42.0749 70.3059C42.0424 89.8245 42.0669 93.0209 42.2477 92.9515C42.3636 92.9071 45.368 91.1968 48.924 89.1511C58.3232 83.744 71.5202 76.1676 77.0557 73.0007L81.864 70.2498L81.8668 47.164C81.8683 34.4668 81.8528 24.0813 81.8322 24.0851C81.8116 24.0888 81.0565 24.5349 80.1539 25.0762ZM0.00577888 48.7977L0.0435227 71.8762L3.69847 73.7996C5.70869 74.8575 12.7239 78.5609 19.2879 82.0293C39.3215 92.6156 40.0528 93 40.1518 93C40.2046 93 40.2467 84.5247 40.2454 74.1659L40.2428 55.3317L39.9342 55.8137C39.5696 56.3828 40.0999 56.589 35.6233 54.138C32.773 52.5772 22.1543 46.772 20.4814 45.8597C20.0711 45.6361 17.8558 44.4289 15.5584 43.1773C13.261 41.9257 11.172 40.7749 10.9162 40.6202C10.6603 40.4655 10.4086 40.339 10.3567 40.339C10.3048 40.339 10.2627 46.0619 10.263 53.0567L10.2635 65.7744L17.8273 70.0261C26.4807 74.8903 31.9343 77.9327 32.0001 77.9327C32.025 77.9327 32.0282 74.2313 32.0068 69.7074L31.9683 61.4822L25.382 57.7165L18.7955 53.951L18.6945 56.2078C18.6388 57.449 18.6154 58.9989 18.6423 59.6519L18.6912 60.8392L22.2715 62.8939C24.2407 64.0239 25.9095 64.969 25.9799 64.9939C26.0503 65.0188 25.7916 65.5603 25.405 66.1973C25.0183 66.8342 24.6511 67.3353 24.5891 67.3108C24.527 67.2862 22.5536 66.165 20.2037 64.8189L15.9313 62.3714L15.9316 60.2689C15.9318 59.1124 15.9762 56.1995 16.0304 53.7959C16.1184 49.8921 16.1542 49.435 16.3658 49.5129C16.496 49.5608 20.6808 51.9295 25.6654 54.7765L34.7282 59.953V71.2604V82.5677L34.3925 82.3925C34.2078 82.2959 31.6401 80.8598 28.6863 79.201C25.7326 77.5423 19.8839 74.2591 15.6892 71.9052C11.4947 69.5512 7.95297 67.5444 7.81871 67.4457C7.59508 67.2811 7.57793 65.9513 7.61328 51.521L7.65177 35.7757L11.1575 37.6944C25.5847 45.5908 39.7692 53.3184 39.9868 53.4004C40.2293 53.4918 40.2479 53.3133 40.2479 50.9036V48.3082L37.7491 46.9122C28.3264 41.6477 0.464811 25.9574 0.349345 25.8505C0.271472 25.7783 0.153767 25.7192 0.0878291 25.7192C0.0218909 25.7192 -0.0149573 36.1046 0.00577888 48.7977Z" fill="white"/>
</svg>
